<?xml version="1.0" encoding="UTF-8" standalone="no"?>
<!DOCTYPE svg  PUBLIC '-//W3C//DTD SVG 1.1//EN'  'http://www.w3.org/Graphics/SVG/1.1/DTD/svg11.dtd'>
<svg xmlns="http://www.w3.org/2000/svg" xml:space="preserve" height="512px" viewBox="0 0 512 512" width="512px" version="1.1" y="0px" x="0px" xmlns:xlink="http://www.w3.org/1999/xlink" enable-background="new 0 0 512 512"><path fill="#fff" clip-rule="evenodd" d="m326 444l-18-10.4c0.542-3.12 0.958-6.31 0.958-9.62s-0.416-6.5-1-9.62l18-10.4c8.42-4.92 11.3-15.7 6.46-24.1-4.88-8.48-15.7-11.4-24.1-6.5l-18.2 10.5c-4.88-4.15-10.4-7.4-16.5-9.6v-20.9c0-9.77-7.94-17.7-17.7-17.7s-17.7 7.92-17.7 17.7v20.9c-6.13 2.19-11.6 5.48-16.5 9.62l-18.1-10.5c-8.48-4.88-19.3-2-24.2 6.48-4.88 8.42-1.94 19.2 6.5 24.1l18 10.4c-0.584 3.15-0.959 6.33-0.959 9.65 0 3.31 0.375 6.5 0.959 9.62l-18 10c-8.46 4.88-11.4 15.8-6.5 24.2s15.7 11.3 24.1 6.44l18.2-10.4c4.87 4.12 10.4 7.38 16.5 9.56v20.9c0 9.75 7.92 17.6 17.7 17.6s17.7-7.88 17.7-17.6v-20.9c6.12-2.19 11.7-5.44 16.5-9.62l18.2 10.5c8.46 4.88 19.2 2 24.1-6.44 5-9 2-19-6-24zm-70-3c-9.75 0-17.7-7.94-17.7-17.7s7.94-17.6 17.7-17.6 17.7 7.9 17.7 17.6-8 18-18 18zm144-377c-5.31 0-10.6 0.375-15.8 1.12-30-40.7-77-65.1-128-65.1s-98.3 24.4-128 65.1c-5-0.7-11-1.1-16-1.1-61.8 0-112 50-112 112s50.2 112 112 112c13.7 0 27.1-2.5 39.7-7.33 29 25 66 39 104 39 38.5 0 75.3-14.1 104-39.3 13 5 26 7 40 7 61.8 0 112-50.2 112-112s-50-112-112-112zm0 192c-17.1 0-32.9-5.5-45.9-14.7-23 29-58 47-98 47-39.6 0-74.6-18.4-98.1-46.7-13 9-29 15-46 15-44.2 0-80-35.8-80-80s35.8-80 80-80c10.8 0 21.1 2.21 30.4 6.08 22-41.3 64-70 114-70s92.3 28.7 114 70.1c9-3.8 19-6 30-6 44.2 0 80 35.8 80 80s-36 80-80 80z" fill-rule="evenodd"/></svg>
