<?xml version="1.0" encoding="UTF-8" standalone="no"?><!DOCTYPE svg  PUBLIC '-//W3C//DTD SVG 1.1//EN'  'http://www.w3.org/Graphics/SVG/1.1/DTD/svg11.dtd'><svg xmlns="http://www.w3.org/2000/svg" xml:space="preserve" height="512px" viewBox="0 50 512 512" width="512px" version="1.1" y="0px" x="0px" xmlns:xlink="http://www.w3.org/1999/xlink" enable-background="new 0 0 512 512">
<path d="m512 240c0-49.2-40-89.1-89.2-89.1-2.4 0-4.77 0.104-7.15 0.291-23.1-28.9-58-46-95.7-46s-72.6 17.1-95.7 46c-2.38-0.188-4.77-0.291-7.19-0.291-49 0-89 40-89 89 0 5.15 0.688 10.1 1.5 15-0.542 0.708-1.19 1.35-1.71 2.08-5.23-0.75-10.5-1.12-15.8-1.12-61.8 0-112 50-112 112 0 61.8 50.2 112 112 112 13.7 0 27.1-2.5 39.7-7.33 29 25 66 39 104 39 38.5 0 75.3-14.1 104-39.3 13 5 26 7 40 7 61.8 0 112-50.2 112-112 0-25.7-9.04-49.1-23.7-68 15-16 24-37 24-60zm-112 208c-17.1 0-32.9-5.5-45.9-14.7-23 29-58 47-98 47-39.6 0-74.6-18.4-98.1-46.7-13 10-29 15-46 15-44.2 0-80-35.8-80-80s35.8-80 80-80c10.8 0 21.1 2.19 30.4 6.06 0.562-1.06 1.25-2 1.81-3.02 5.62-10.3 12.6-19.7 20.7-28 23-24 55-39 91-39 49.7 0 92.3 28.7 114 70.1 5.65-2.31 11.7-3.81 17.9-4.81l12-1c12.3 0 23.9 3.04 34.3 8 11.3 5.42 21 13.4 28.6 23.2 10.5 13.5 17 30.4 17 48.8 0 44-36 80-80 80zm66-170c-18.5-13.5-41-21.6-65.6-21.6-5.31 0-10.6 0.375-15.8 1.12-29.9-40.7-77-65.1-128-65.1-34.1 0-66.3 11-92.9 30.3 7.48-22.9 28.7-39.5 54.1-39.5 7.75 0 15.1 1.56 21.8 4.33 15.2-29.6 45.6-50 81.1-50s66 20.5 81.1 50c6.73-2.77 14.1-4.33 21.7-4.33 31.6 0 57.2 25.6 57.2 57.1 0 15-6 29-14 39z" fill="#fff"/>
</svg>
