<?xml version="1.0" encoding="UTF-8" standalone="no"?><!DOCTYPE svg  PUBLIC '-//W3C//DTD SVG 1.1//EN'  'http://www.w3.org/Graphics/SVG/1.1/DTD/svg11.dtd'><svg xmlns="http://www.w3.org/2000/svg" xml:space="preserve" height="512px" viewBox="0 0 512 512" width="512px" version="1.1" y="0px" x="0px" xmlns:xlink="http://www.w3.org/1999/xlink" enable-background="new 0 0 512 512">
		<path d="m192 384l32 32-32 96 96-96-32-32 32-64-96 64zm320-249c0-49.1-40-89.1-89.2-89.1-2.4 0-4.77 0.083-7.15 0.27-23-29.1-58-46.2-96-46.2-37.7 0-72.6 17.1-95.7 46-2.38-0.187-4.77-0.27-7.19-0.27-49 0-89 40-89 89.3 0 5.15 0.688 10.1 1.5 15-0.542 0.708-1.19 1.35-1.71 2.08-5.23-0.75-10.5-1.12-15.8-1.12-61.8 0-112 50.2-112 112s50.2 112 112 112c13.7 0 27.1-2.5 39.7-7.33 1.1 0.959 2.42 1.62 3.54 2.56l28.3-18.9c-9.44-6.69-18.2-14.1-25.6-23-13 9.15-28.8 14.6-45.9 14.6-44.2 0-80-35.8-80-80s35.8-80 80-80c10.8 0 21.1 2.21 30.4 6.08 0.562-1.08 1.25-2 1.81-3.04 5.62-10.3 12.6-19.7 20.7-28 23.1-23.9 55.2-39 91.1-39 49.7 0 92.3 28.7 114 70.1 5.65-2.33 11.7-3.83 17.9-4.83l12.6-1.25c12.3 0 23.9 3.04 34.3 8 11.3 5.42 21 13.4 28.6 23.2 10.5 13.5 17 30.3 17 48.8 0 44.2-35.8 80-80 80-17.1 0-32.9-5.5-45.9-14.6-14 16.9-32.4 29.6-53.1 37.6l-5.98 11.9 18.2 18.2c17.1-6.65 33-16.2 47.1-28.4 12.6 4.83 26 7.33 39.7 7.33 61.8 0 112-50.2 112-112 0-25.7-9.04-49.1-23.7-68 14-17 23-38 23-61zm-46 37c-18.5-13.4-41-21.6-65.6-21.6-5.31 0-10.6 0.375-15.8 1.12-30-40-77-64.2-128-64.2-34.1 0-66.3 11.1-92.9 30.4 7.48-22.9 28.7-39.5 54.1-39.5 7.75 0 15.1 1.56 21.8 4.33 15-29.3 45-49.8 81-49.8s66 20.5 81.1 50c6.73-2.77 14.1-4.33 21.7-4.33 31.6 0 57.2 25.6 57.2 57.1 0 14-6 27-14 37z" fill="#fff"/>
</svg>
